<svg width="345" height="64" viewBox="0 0 345 64" fill="none" xmlns="http://www.w3.org/2000/svg">
<path d="M61 32C61 39.732 54.732 46 47 46C39.268 46 33 39.732 33 32C33 24.268 39.268 18 47 18C54.732 18 61 24.268 61 32Z" fill="black"/>
<line x1="41.1768" y1="27.8232" x2="46.1768" y2="32.8232" stroke="white" stroke-width="0.5"/>
<line x1="55.1768" y1="25.1768" x2="47.1768" y2="33.1768" stroke="white" stroke-width="0.5"/>
<circle cx="47" cy="33" r="1" fill="white"/>
<path d="M5.2 46V18H7.92V30.96H24.72V18H27.44V46H24.72V31.92H7.92V46H5.2ZM68.6187 18H71.3387V34.88C71.3387 38.1067 72.1254 40.6267 73.6987 42.44C75.2987 44.2267 77.5387 45.12 80.4187 45.12C82.2321 45.12 83.8054 44.7733 85.1388 44.08C86.4988 43.36 87.5387 42.3733 88.2587 41.12C89.0054 39.8667 89.3521 38.4267 89.2987 36.8L88.6187 18H91.3387L90.6587 36.8C90.5521 40 89.5921 42.4267 87.7787 44.08C85.9921 45.7333 83.4321 46.56 80.0987 46.56C76.4987 46.56 73.6854 45.52 71.6587 43.44C69.6321 41.3333 68.6187 38.4533 68.6187 34.8V18ZM104.133 18H109.493C112.319 18 114.506 18.6 116.053 19.8C117.626 20.9733 118.413 22.6267 118.413 24.76C118.413 26.4133 117.919 27.7867 116.933 28.88C115.973 29.9733 114.573 30.7067 112.733 31.08V31.32C114.493 31.6667 115.933 32.4933 117.053 33.8C118.173 35.1067 119.013 36.72 119.573 38.64C120.079 40.4 120.573 41.7733 121.053 42.76C121.559 43.72 122.106 44.4133 122.693 44.84C123.306 45.2667 124.026 45.5733 124.853 45.76V46H123.213C122.039 46 121.066 45.7867 120.293 45.36C119.546 44.9333 118.906 44.2133 118.373 43.2C117.839 42.1867 117.333 40.7867 116.853 39C116.079 36.2533 115.053 34.3067 113.773 33.16C112.493 32.0133 110.933 31.44 109.093 31.44H108.853V30.72H109.093C113.386 30.72 115.533 28.7467 115.533 24.8C115.533 20.9067 113.519 18.96 109.493 18.96H106.853V46H104.133V18ZM173.338 18V46H170.618V20.32H170.378L160.698 38.88H159.458L148.458 22.52H148.218L149.098 46H146.378L147.378 17.44H148.178L160.778 36.16H161.018L170.458 18H173.338ZM182.776 46L193.536 18H196.016L206.776 46H203.856L198.896 32.88H189.816L185.696 46H182.776ZM193.816 20.08L190.096 31.92H198.536L194.056 20.08H193.816ZM216.464 18H221.824C224.651 18 226.837 18.6 228.384 19.8C229.957 20.9733 230.744 22.6267 230.744 24.76C230.744 26.4133 230.251 27.7867 229.264 28.88C228.304 29.9733 226.904 30.7067 225.064 31.08V31.32C226.824 31.6667 228.264 32.4933 229.384 33.8C230.504 35.1067 231.344 36.72 231.904 38.64C232.411 40.4 232.904 41.7733 233.384 42.76C233.891 43.72 234.437 44.4133 235.024 44.84C235.637 45.2667 236.357 45.5733 237.184 45.76V46H235.544C234.371 46 233.397 45.7867 232.624 45.36C231.877 44.9333 231.237 44.2133 230.704 43.2C230.171 42.1867 229.664 40.7867 229.184 39C228.411 36.2533 227.384 34.3067 226.104 33.16C224.824 32.0133 223.264 31.44 221.424 31.44H221.184V30.72H221.424C225.717 30.72 227.864 28.7467 227.864 24.8C227.864 20.9067 225.851 18.96 221.824 18.96H219.184V46H216.464V18ZM262.608 46L249.488 31.64L261.648 18H265.088L251.928 30.52L266.208 46H262.608ZM245.328 46V18H248.048V46H245.328ZM275.403 46V18H287.603V19.96L280.603 19.04C279.376 18.88 278.55 18.8 278.123 18.8V31C278.47 31 279.296 30.96 280.603 30.88L287.163 30.48V32.32L280.603 31.92C279.296 31.84 278.47 31.8 278.123 31.8V45.2C278.603 45.2 279.443 45.12 280.643 44.96L287.723 44.04V46H275.403ZM299.306 18H304.666C307.493 18 309.68 18.6 311.226 19.8C312.8 20.9733 313.586 22.6267 313.586 24.76C313.586 26.4133 313.093 27.7867 312.106 28.88C311.146 29.9733 309.746 30.7067 307.906 31.08V31.32C309.666 31.6667 311.106 32.4933 312.226 33.8C313.346 35.1067 314.186 36.72 314.746 38.64C315.253 40.4 315.746 41.7733 316.226 42.76C316.733 43.72 317.28 44.4133 317.866 44.84C318.48 45.2667 319.2 45.5733 320.026 45.76V46H318.386C317.213 46 316.24 45.7867 315.466 45.36C314.72 44.9333 314.08 44.2133 313.546 43.2C313.013 42.1867 312.506 40.7867 312.026 39C311.253 36.2533 310.226 34.3067 308.946 33.16C307.666 32.0133 306.106 31.44 304.266 31.44H304.026V30.72H304.266C308.56 30.72 310.706 28.7467 310.706 24.8C310.706 20.9067 308.693 18.96 304.666 18.96H302.026V46H299.306V18ZM325.73 45.12L325.97 42.72H326.21C327.25 43.6267 328.424 44.3333 329.73 44.84C331.037 45.3467 332.33 45.6 333.61 45.6C335.424 45.6 336.89 45.1067 338.01 44.12C339.13 43.1067 339.69 41.76 339.69 40.08C339.69 39.1467 339.477 38.28 339.05 37.48C338.65 36.68 337.97 35.8667 337.01 35.04C336.077 34.2133 334.784 33.32 333.13 32.36C331.984 31.6933 330.89 31 329.85 30.28C328.81 29.5333 327.957 28.68 327.29 27.72C326.624 26.7333 326.29 25.56 326.29 24.2C326.29 22.1733 327.024 20.5467 328.49 19.32C329.957 18.0667 331.89 17.44 334.29 17.44C335.357 17.44 336.504 17.56 337.73 17.8C338.957 18.0133 339.904 18.2933 340.57 18.64L340.37 20.88H340.13C338.61 19.2267 336.664 18.4 334.29 18.4C332.584 18.4 331.21 18.84 330.17 19.72C329.13 20.5733 328.61 21.7333 328.61 23.2C328.61 24.2933 328.89 25.24 329.45 26.04C330.037 26.8133 330.784 27.52 331.69 28.16C332.597 28.7733 333.57 29.3733 334.61 29.96C335.81 30.6533 336.97 31.3867 338.09 32.16C339.237 32.9333 340.17 33.8667 340.89 34.96C341.637 36.0267 342.01 37.3733 342.01 39C342.01 40.4933 341.664 41.8133 340.97 42.96C340.277 44.08 339.29 44.96 338.01 45.6C336.757 46.24 335.29 46.56 333.61 46.56C332.544 46.56 331.29 46.4267 329.85 46.16C328.41 45.8933 327.037 45.5467 325.73 45.12Z" fill="black"/>
</svg>
