<svg width="250" height="32" viewBox="0 0 250 32" fill="none" xmlns="http://www.w3.org/2000/svg">
<path d="M0.117188 2.85254C0.998047 2.95931 1.79883 3.03939 2.51953 3.09277C3.21354 3.14616 3.81413 3.19954 4.32129 3.25293C4.90853 3.30632 5.42904 3.34635 5.88281 3.37305C6.36328 3.37305 6.97721 3.3597 7.72461 3.33301C8.36523 3.30632 9.17936 3.26628 10.167 3.21289C11.1546 3.15951 12.3691 3.06608 13.8105 2.93262C13.1165 3.33301 12.5426 3.7334 12.0889 4.13379C11.6618 4.53418 11.3281 4.89453 11.0879 5.21484C10.7943 5.58854 10.5807 5.96224 10.4473 6.33594C10.3672 6.8431 10.3939 7.83073 10.5273 9.29883C10.5807 9.91276 10.6608 10.6735 10.7676 11.5811C10.901 12.4619 11.0612 13.5163 11.248 14.7441C11.4616 15.9453 11.7152 17.3333 12.0088 18.9082C12.3291 20.4831 12.6895 22.2715 13.0898 24.2734C13.6237 22.752 14.0641 21.404 14.4111 20.2295C14.7581 19.0283 15.0518 18.0007 15.292 17.1465C15.5589 16.1855 15.7858 15.3314 15.9727 14.584C16.1595 13.8099 16.3864 12.8089 16.6533 11.5811C16.8669 10.54 17.1471 9.19206 17.4941 7.53711C17.8411 5.88216 18.2682 3.84017 18.7754 1.41113L20.2168 1.61133C20.3503 3.50651 20.4837 5.1748 20.6172 6.61621C20.7773 8.05762 20.9108 9.28548 21.0176 10.2998C21.1243 11.4743 21.2311 12.4886 21.3379 13.3428C21.4447 14.1169 21.6048 15.0111 21.8184 16.0254C22.0052 16.8796 22.2454 17.9339 22.5391 19.1885C22.8327 20.4163 23.2197 21.8044 23.7002 23.3525C24.1807 21.4574 24.6077 19.7624 24.9814 18.2676C25.3818 16.7728 25.7155 15.4515 25.9824 14.3037C26.276 13.1559 26.5163 12.1683 26.7031 11.3408C26.9167 10.5133 27.0902 9.81934 27.2236 9.25879C27.5173 7.92415 27.6908 7.02995 27.7441 6.57617C27.7174 6.06901 27.5973 5.5752 27.3838 5.09473C27.1969 4.66764 26.9033 4.20052 26.5029 3.69336C26.1025 3.1862 25.5153 2.69238 24.7412 2.21191C26.3695 2.2653 27.6908 2.30534 28.7051 2.33203C29.7461 2.33203 30.5736 2.33203 31.1875 2.33203H32.7891H34.2305C34.7643 2.33203 35.4583 2.33203 36.3125 2.33203C37.1934 2.30534 38.3145 2.2653 39.6758 2.21191C38.5013 2.82585 37.5537 3.38639 36.833 3.89355C36.1123 4.40072 35.5518 4.8278 35.1514 5.1748C34.6709 5.60189 34.3239 5.96224 34.1104 6.25586C33.8968 6.78971 33.5498 7.99089 33.0693 9.85938C32.8558 10.6602 32.6156 11.6611 32.3486 12.8623C32.0817 14.0368 31.7614 15.4515 31.3877 17.1064C31.0407 18.7614 30.6403 20.6966 30.1865 22.9121C29.7327 25.1009 29.2256 27.61 28.665 30.4395L21.7383 29.7188L18.7754 17.2666C18.3216 19.5355 17.9613 21.3773 17.6943 22.792C17.4274 24.18 17.2272 25.2611 17.0938 26.0352C16.9336 26.9694 16.8402 27.6501 16.8135 28.0771C16.7868 28.4508 16.7601 28.8112 16.7334 29.1582C16.7067 29.4518 16.6667 29.7721 16.6133 30.1191C16.5866 30.4661 16.5465 30.7865 16.4932 31.0801H9.40625C8.71224 28.0371 8.08496 25.3545 7.52441 23.0322C6.99056 20.6833 6.51009 18.6279 6.08301 16.8662C5.65592 15.1045 5.28223 13.6097 4.96191 12.3818C4.66829 11.154 4.40137 10.1263 4.16113 9.29883C3.62728 7.37695 3.24023 6.18913 3 5.73535C2.81315 5.52181 2.57292 5.26823 2.2793 4.97461C2.03906 4.73438 1.74544 4.44076 1.39844 4.09375C1.02474 3.72005 0.597656 3.30632 0.117188 2.85254ZM41.2373 3.89355C42.5719 3.97363 43.693 4.04036 44.6006 4.09375C45.5348 4.12044 46.3089 4.14714 46.9229 4.17383C47.6169 4.20052 48.2041 4.20052 48.6846 4.17383C49.165 4.14714 49.819 4.0804 50.6465 3.97363C51.3405 3.89355 52.2614 3.77344 53.4092 3.61328C54.5837 3.42643 56.0384 3.1862 57.7734 2.89258C57.1595 3.50651 56.679 4.06706 56.332 4.57422C56.0117 5.05469 55.7581 5.46842 55.5713 5.81543C55.3577 6.24251 55.2109 6.60286 55.1309 6.89648C55.0775 7.16341 55.1309 7.83073 55.291 8.89844C55.4512 9.96615 55.6781 11.234 55.9717 12.7021C56.2653 14.1436 56.5856 15.6917 56.9326 17.3467C57.2796 18.9749 57.6266 20.5098 57.9736 21.9512C58.3206 23.3659 58.6276 24.5804 58.8945 25.5947C59.1882 26.5824 59.4017 27.1696 59.5352 27.3564C59.9355 27.917 60.1891 28.2907 60.2959 28.4775C60.4027 28.6377 60.5895 28.7845 60.8564 28.918C60.9632 28.9714 61.1367 29.0514 61.377 29.1582C61.5905 29.265 61.8708 29.3984 62.2178 29.5586C62.5915 29.7188 63.0586 29.9056 63.6191 30.1191C62.5781 30.1725 61.6839 30.2126 60.9365 30.2393C60.1891 30.2393 59.5752 30.2526 59.0947 30.2793C58.5342 30.306 58.0537 30.3327 57.6533 30.3594C57.2529 30.3594 56.7725 30.3861 56.2119 30.4395C55.7314 30.4928 55.1042 30.5462 54.3301 30.5996C53.5827 30.653 52.7018 30.7064 51.6875 30.7598C52.2214 30.3861 52.6484 30.0524 52.9688 29.7588C53.3158 29.4385 53.5827 29.1715 53.7695 28.958C53.9831 28.6911 54.1299 28.4508 54.21 28.2373C54.2633 27.9971 54.3034 27.6367 54.3301 27.1562C54.3568 26.7292 54.3568 26.1686 54.3301 25.4746C54.3034 24.7539 54.2367 23.8197 54.1299 22.6719L43.5996 23.7529C43.3327 24.2067 43.1325 24.6071 42.999 24.9541C42.8656 25.2744 42.7721 25.5547 42.7188 25.7949C42.6387 26.0885 42.612 26.3288 42.6387 26.5156C42.6921 26.7292 42.7855 26.9827 42.9189 27.2764C43.0524 27.5433 43.2393 27.8636 43.4795 28.2373C43.7464 28.5843 44.1335 28.998 44.6406 29.4785C43.9733 29.4518 43.2926 29.4385 42.5986 29.4385C41.9046 29.4385 41.264 29.4518 40.6768 29.4785C39.9827 29.5052 39.3021 29.5319 38.6348 29.5586C37.9674 29.5853 37.2067 29.6253 36.3525 29.6787C35.6318 29.7321 34.791 29.7988 33.8301 29.8789C32.8424 29.9323 31.7881 30.0124 30.667 30.1191C31.361 29.7988 31.9482 29.4785 32.4287 29.1582C32.9092 28.8112 33.3096 28.4909 33.6299 28.1973C34.0036 27.877 34.3239 27.57 34.5908 27.2764C34.7777 27.0094 35.1514 26.3955 35.7119 25.4346C36.2725 24.4469 36.8997 23.2858 37.5938 21.9512C38.3145 20.6165 39.0618 19.1885 39.8359 17.667C40.6367 16.1455 41.3574 14.7174 41.998 13.3828C42.6387 12.0215 43.1592 10.847 43.5596 9.85938C43.96 8.87174 44.1602 8.23112 44.1602 7.9375C44.1068 7.59049 43.9733 7.20345 43.7598 6.77637C43.5729 6.40267 43.2793 5.97559 42.8789 5.49512C42.5052 5.01465 41.958 4.48079 41.2373 3.89355ZM53.6494 19.709C53.4893 18.7747 53.3424 17.974 53.209 17.3066C53.0755 16.6126 52.9688 16.0387 52.8887 15.585C52.7819 15.0511 52.7018 14.584 52.6484 14.1836C52.5684 13.8099 52.4749 13.3294 52.3682 12.7422C52.2614 12.235 52.1279 11.6077 51.9678 10.8604C51.8343 10.0863 51.6608 9.16536 51.4473 8.09766C49.9258 11.1406 48.738 13.5029 47.8838 15.1846C47.0563 16.8395 46.4557 18.054 46.082 18.8281C45.6283 19.7357 45.3747 20.2695 45.3213 20.4297L53.6494 19.709ZM60.3359 1.77148C62.1243 1.98503 63.6725 2.14518 64.9805 2.25195C66.2884 2.33203 67.3695 2.39876 68.2236 2.45215C69.2113 2.50553 70.0387 2.51888 70.7061 2.49219C71.4001 2.46549 72.3477 2.39876 73.5488 2.29199C74.5632 2.21191 75.8978 2.10514 77.5527 1.97168C79.2077 1.81152 81.2764 1.59798 83.7588 1.33105C83.7855 1.94499 83.7988 2.54557 83.7988 3.13281C83.8255 3.69336 83.8522 4.18717 83.8789 4.61426C83.9056 5.12142 83.9189 5.58854 83.9189 6.01562C83.9189 6.4694 83.8923 7.04329 83.8389 7.7373C83.7855 8.32454 83.6921 9.07194 83.5586 9.97949C83.4518 10.8604 83.2783 11.9147 83.0381 13.1426C82.6644 11.7012 82.304 10.54 81.957 9.65918C81.61 8.75163 81.2897 8.03092 80.9961 7.49707C80.6758 6.88314 80.3555 6.41602 80.0352 6.0957C79.6882 5.85547 79.2744 5.65527 78.7939 5.49512C78.3669 5.36165 77.8197 5.25488 77.1523 5.1748C76.5117 5.09473 75.751 5.10807 74.8701 5.21484C74.7367 8.73828 74.6432 11.5944 74.5898 13.7832C74.5365 15.972 74.4964 17.6803 74.4697 18.9082C74.443 20.3763 74.4297 21.4307 74.4297 22.0713C74.4564 22.9788 74.6032 23.873 74.8701 24.7539C75.0837 25.5013 75.4307 26.2754 75.9111 27.0762C76.3916 27.877 77.0856 28.5843 77.9932 29.1982H73.1084C72.6546 29.1982 72.0941 29.2249 71.4268 29.2783C70.8662 29.3317 70.1455 29.3851 69.2646 29.4385C68.4105 29.4919 67.4095 29.5853 66.2617 29.7188C66.6621 29.0247 66.9824 28.3975 67.2227 27.8369C67.4629 27.2764 67.6497 26.7959 67.7832 26.3955C67.9434 25.915 68.0635 25.488 68.1436 25.1143C68.1702 24.5804 68.237 23.4993 68.3438 21.8711C68.3704 21.2038 68.3971 20.3763 68.4238 19.3887C68.4772 18.401 68.5306 17.2266 68.584 15.8652C68.6641 14.5039 68.7308 12.9424 68.7842 11.1807C68.8643 9.39225 68.9443 7.37695 69.0244 5.13477C68.5439 5.0013 68.0902 5.01465 67.6631 5.1748C67.236 5.30827 66.8623 5.48177 66.542 5.69531C66.1683 5.96224 65.8079 6.28255 65.4609 6.65625C65.1139 7.11003 64.7269 7.69727 64.2998 8.41797C63.9261 9.0319 63.499 9.84603 63.0186 10.8604C62.5381 11.848 61.9909 13.0758 61.377 14.5439C61.2435 12.9958 61.1501 11.7279 61.0967 10.7402C61.0433 9.72591 61.0033 8.93848 60.9766 8.37793C60.9499 7.71061 60.9365 7.2168 60.9365 6.89648C60.9365 6.60286 60.9098 6.21582 60.8564 5.73535C60.8031 5.33496 60.7363 4.81445 60.6562 4.17383C60.5762 3.50651 60.4694 2.70573 60.3359 1.77148ZM94.8496 1.41113C95.7839 1.41113 96.6247 1.57129 97.3721 1.8916C98.1462 2.18522 98.8535 2.51888 99.4941 2.89258C100.161 3.26628 100.789 3.61328 101.376 3.93359C101.963 4.22721 102.564 4.37402 103.178 4.37402C103.658 4.34733 104.205 4.2806 104.819 4.17383C105.353 4.06706 105.967 3.9069 106.661 3.69336C107.382 3.45312 108.183 3.10612 109.063 2.65234C108.183 3.50651 107.462 4.22721 106.901 4.81445C106.368 5.375 105.954 5.84212 105.66 6.21582C105.313 6.6429 105.06 6.97656 104.899 7.2168C104.739 7.51042 104.499 7.95085 104.179 8.53809C103.885 9.07194 103.485 9.79264 102.978 10.7002C102.47 11.5811 101.83 12.7422 101.056 14.1836C101.056 12.3418 100.869 10.9137 100.495 9.89941C100.148 8.88509 99.7611 8.111 99.334 7.57715C98.8268 6.96322 98.2529 6.57617 97.6123 6.41602C97.0251 6.33594 96.4378 6.44271 95.8506 6.73633C95.2633 7.00326 94.6761 7.40365 94.0889 7.9375C93.5283 8.47135 92.9811 9.11198 92.4473 9.85938C91.9401 10.5801 91.473 11.3408 91.0459 12.1416C90.6455 12.9424 90.3118 13.7565 90.0449 14.584C89.778 15.3848 89.6045 16.1322 89.5244 16.8262C89.4443 17.4401 89.431 18.1608 89.4844 18.9883C89.5378 19.7891 89.6579 20.6165 89.8447 21.4707C90.0316 22.2982 90.2718 23.1123 90.5654 23.9131C90.859 24.7139 91.2194 25.4346 91.6465 26.0752C92.1003 26.6891 92.6074 27.1963 93.168 27.5967C93.7285 27.9704 94.3691 28.1439 95.0898 28.1172C95.8906 28.0638 96.6781 27.8236 97.4521 27.3965C98.1195 27.0495 98.8001 26.5156 99.4941 25.7949C100.188 25.0475 100.789 23.9932 101.296 22.6318L107.222 23.7129C105.513 25.7949 103.845 27.3564 102.217 28.3975C100.615 29.4385 99.1738 30.1725 97.8926 30.5996C96.3978 31.0801 94.9831 31.307 93.6484 31.2803C91.9668 31.0934 90.3919 30.5863 88.9238 29.7588C87.4557 28.9313 86.1878 27.9303 85.1201 26.7559C84.0791 25.5547 83.265 24.2467 82.6777 22.832C82.0905 21.4173 81.8369 20.0293 81.917 18.668C81.9704 17.7604 82.1572 16.7061 82.4775 15.5049C82.7979 14.277 83.2249 13.0225 83.7588 11.7412C84.3193 10.46 84.9867 9.2054 85.7607 7.97754C86.5348 6.74967 87.389 5.65527 88.3232 4.69434C89.2575 3.70671 90.2718 2.91927 91.3662 2.33203C92.4873 1.7181 93.6484 1.41113 94.8496 1.41113ZM105.78 2.57227C106.715 2.67904 107.502 2.75911 108.143 2.8125C108.783 2.83919 109.29 2.86589 109.664 2.89258C110.118 2.91927 110.478 2.93262 110.745 2.93262C111.199 2.93262 111.719 2.91927 112.307 2.89258C112.814 2.86589 113.401 2.82585 114.068 2.77246C114.762 2.69238 115.51 2.57227 116.311 2.41211C115.937 2.8125 115.63 3.19954 115.39 3.57324C115.149 3.92025 114.963 4.24056 114.829 4.53418C114.669 4.85449 114.535 5.14811 114.429 5.41504C114.322 5.76204 114.202 6.2959 114.068 7.0166C113.935 7.63053 113.788 8.49805 113.628 9.61914C113.494 10.7402 113.321 12.2083 113.107 14.0234C114.015 14.0501 114.802 14.0635 115.47 14.0635C116.137 14.0368 116.698 14.0234 117.151 14.0234H118.473C118.846 13.9967 119.273 13.9701 119.754 13.9434C120.555 13.9167 121.769 13.8366 123.397 13.7031C123.531 12.4753 123.598 11.4209 123.598 10.54C123.624 9.63249 123.611 8.87174 123.558 8.25781C123.504 7.5638 123.424 6.97656 123.317 6.49609C123.237 6.22917 123.117 5.90885 122.957 5.53516C122.824 5.21484 122.637 4.8278 122.396 4.37402C122.183 3.89355 121.889 3.31966 121.516 2.65234C122.21 2.75911 122.824 2.83919 123.357 2.89258C123.918 2.91927 124.385 2.94596 124.759 2.97266C125.186 2.99935 125.546 3.0127 125.84 3.0127C126.133 3.0127 126.521 2.99935 127.001 2.97266C127.401 2.94596 127.895 2.93262 128.482 2.93262C129.07 2.90592 129.79 2.86589 130.645 2.8125C130.431 3.1862 130.244 3.57324 130.084 3.97363C129.924 4.37402 129.79 4.73438 129.684 5.05469C129.577 5.42839 129.47 5.80208 129.363 6.17578C129.23 6.73633 129.11 7.55046 129.003 8.61816C128.923 9.68587 128.843 10.8737 128.763 12.1816C128.709 13.4896 128.656 14.8509 128.603 16.2656C128.576 17.6803 128.549 19.015 128.522 20.2695C128.522 21.5241 128.536 22.6452 128.562 23.6328C128.589 24.5938 128.643 25.2744 128.723 25.6748C128.803 26.1553 128.936 26.6491 129.123 27.1562C129.283 27.61 129.497 28.1038 129.764 28.6377C130.031 29.1449 130.378 29.6253 130.805 30.0791L121.155 30.7998C121.556 30.4261 121.876 30.0658 122.116 29.7188C122.356 29.3451 122.543 29.0247 122.677 28.7578C122.81 28.4642 122.904 28.1839 122.957 27.917C122.984 27.5967 123.024 27.0361 123.077 26.2354C123.131 25.568 123.184 24.6204 123.237 23.3926C123.291 22.1647 123.344 20.5365 123.397 18.5078C123.024 18.5078 122.57 18.5212 122.036 18.5479C121.529 18.5479 121.049 18.5612 120.595 18.5879C120.061 18.6146 119.5 18.6279 118.913 18.6279C118.326 18.6546 117.712 18.6813 117.071 18.708C116.537 18.7614 115.937 18.8148 115.27 18.8682C114.629 18.8949 113.988 18.9349 113.348 18.9883C113.294 20.1094 113.294 21.097 113.348 21.9512C113.401 22.7786 113.481 23.486 113.588 24.0732C113.695 24.7673 113.828 25.3678 113.988 25.875C114.148 26.3555 114.322 26.8359 114.509 27.3164C114.669 27.7435 114.856 28.1973 115.069 28.6777C115.31 29.1582 115.55 29.5853 115.79 29.959C115.283 29.9056 114.816 29.8656 114.389 29.8389C113.962 29.7855 113.588 29.7321 113.268 29.6787C112.894 29.652 112.534 29.6253 112.187 29.5986C111.84 29.5986 111.426 29.5853 110.945 29.5586C110.518 29.5319 109.984 29.5186 109.344 29.5186C108.703 29.4919 107.956 29.4785 107.102 29.4785C107.609 28.9714 108.009 28.4775 108.303 27.9971C108.623 27.4899 108.85 27.0361 108.983 26.6357C109.144 26.1553 109.25 25.7148 109.304 25.3145C109.33 24.9674 109.344 24.3135 109.344 23.3525C109.37 22.3916 109.37 21.2972 109.344 20.0693C109.344 18.8148 109.33 17.5068 109.304 16.1455C109.277 14.7575 109.237 13.4629 109.184 12.2617C109.157 11.0605 109.117 10.0329 109.063 9.17871C109.037 8.29785 109.01 7.75065 108.983 7.53711C108.85 7.05664 108.65 6.53613 108.383 5.97559C108.143 5.52181 107.822 5.0013 107.422 4.41406C107.021 3.80013 106.474 3.1862 105.78 2.57227ZM127.321 2.25195C129.11 2.33203 130.498 2.37207 131.485 2.37207H132.967C133.394 2.37207 133.928 2.35872 134.568 2.33203C135.102 2.30534 135.783 2.29199 136.61 2.29199C137.438 2.2653 138.425 2.22526 139.573 2.17188C139.039 2.54557 138.612 2.90592 138.292 3.25293C137.972 3.59993 137.718 3.9069 137.531 4.17383C137.318 4.49414 137.171 4.78776 137.091 5.05469C136.904 5.7487 136.824 6.69629 136.851 7.89746C136.904 9.07194 137.024 10.3532 137.211 11.7412C137.398 13.1025 137.625 14.4906 137.892 15.9053C138.159 17.32 138.425 18.6012 138.692 19.749C138.986 20.8968 139.24 21.8444 139.453 22.5918C139.693 23.3125 139.867 23.6729 139.974 23.6729C140.08 23.6729 140.281 23.2858 140.574 22.5117C140.895 21.7376 141.255 20.7633 141.655 19.5889C142.056 18.3877 142.469 17.0931 142.896 15.7051C143.324 14.2904 143.711 12.9557 144.058 11.7012C144.431 10.4199 144.738 9.32552 144.979 8.41797C145.219 7.48372 145.339 6.90983 145.339 6.69629C145.312 6.40267 145.219 6.0957 145.059 5.77539C144.925 5.48177 144.685 5.14811 144.338 4.77441C144.018 4.37402 143.564 3.92025 142.977 3.41309C143.804 3.38639 144.511 3.3597 145.099 3.33301C145.713 3.30632 146.233 3.29297 146.66 3.29297H147.901H154.308C153.64 3.74674 153.066 4.18717 152.586 4.61426C152.132 5.04134 151.758 5.44173 151.465 5.81543C151.118 6.24251 150.824 6.6429 150.584 7.0166C150.317 7.57715 149.877 8.79167 149.263 10.6602C148.996 11.4609 148.689 12.4352 148.342 13.583C147.995 14.7308 147.581 16.1055 147.101 17.707C146.62 19.3086 146.086 21.1637 145.499 23.2725C144.912 25.3545 144.244 27.7301 143.497 30.3994L137.932 31.1201C137.264 29.0381 136.677 27.1429 136.17 25.4346C135.689 23.6995 135.262 22.2181 134.889 20.9902C134.462 19.5488 134.101 18.2542 133.808 17.1064C133.407 15.7184 133.06 14.3171 132.767 12.9023C132.5 11.4609 132.259 10.1663 132.046 9.01855C131.859 7.84408 131.686 6.86979 131.525 6.0957C131.365 5.32161 131.192 4.86784 131.005 4.73438C130.845 4.60091 130.604 4.42741 130.284 4.21387C129.991 4.02702 129.617 3.78678 129.163 3.49316C128.683 3.17285 128.069 2.75911 127.321 2.25195ZM149.183 3.65332C151.051 3.70671 152.599 3.74674 153.827 3.77344C155.082 3.77344 156.096 3.77344 156.87 3.77344H158.992H170.924C170.977 4.30729 171.017 4.8278 171.044 5.33496C171.097 5.81543 171.124 6.24251 171.124 6.61621C171.124 7.06999 171.111 7.48372 171.084 7.85742C171.057 8.23112 171.017 8.63151 170.964 9.05859C170.91 9.43229 170.857 9.83268 170.804 10.2598C170.75 10.6868 170.657 11.1273 170.523 11.5811C170.15 10.1396 169.643 9.04525 169.002 8.29785C168.388 7.55046 167.761 7.00326 167.12 6.65625C166.373 6.25586 165.585 6.04232 164.758 6.01562C163.663 6.06901 162.809 6.16243 162.195 6.2959C161.581 6.42936 161.101 6.61621 160.754 6.85645C160.407 7.09668 160.14 7.37695 159.953 7.69727C159.793 7.99089 159.619 8.32454 159.433 8.69824C159.272 9.01855 159.126 9.51237 158.992 10.1797C158.859 10.7402 158.725 11.501 158.592 12.4619C158.485 13.4229 158.365 14.6641 158.231 16.1855C158.952 15.972 159.526 15.7718 159.953 15.585C160.407 15.3981 160.767 15.238 161.034 15.1045C161.328 14.9443 161.541 14.7975 161.675 14.6641C161.782 14.5039 161.942 14.2103 162.155 13.7832C162.315 13.4095 162.529 12.9023 162.796 12.2617C163.09 11.6211 163.437 10.7402 163.837 9.61914C163.89 10.847 163.917 11.8747 163.917 12.7021C163.917 13.5029 163.93 14.1569 163.957 14.6641C163.957 15.2513 163.97 15.7184 163.997 16.0654V17.5869C163.997 18.1475 163.997 18.9082 163.997 19.8691C164.024 20.8034 164.064 21.9912 164.117 23.4326C163.797 22.445 163.503 21.6709 163.236 21.1104C162.996 20.5231 162.783 20.0827 162.596 19.7891C162.382 19.4421 162.195 19.2018 162.035 19.0684C161.848 19.015 161.595 18.9616 161.274 18.9082C160.981 18.8815 160.607 18.8682 160.153 18.8682C159.726 18.8682 159.179 18.9349 158.512 19.0684C158.432 20.5365 158.418 21.7243 158.472 22.6318C158.552 23.5127 158.659 24.1934 158.792 24.6738C158.925 25.2344 159.086 25.6348 159.272 25.875C159.513 26.1152 159.993 26.3154 160.714 26.4756C161.435 26.609 162.249 26.6624 163.156 26.6357C164.09 26.5824 165.038 26.4222 165.999 26.1553C166.96 25.8883 167.814 25.4479 168.562 24.834C169.122 24.3268 169.723 23.6862 170.363 22.9121C170.897 22.2448 171.484 21.404 172.125 20.3896C172.792 19.3753 173.446 18.1475 174.087 16.7061C173.98 17.9072 173.9 18.9082 173.847 19.709C173.82 20.4831 173.78 21.1104 173.727 21.5908C173.673 22.1514 173.633 22.5785 173.606 22.8721C173.606 23.1924 173.566 23.6462 173.486 24.2334C173.433 24.7406 173.34 25.4346 173.206 26.3154C173.099 27.1696 172.952 28.264 172.766 29.5986C171.511 29.6253 170.323 29.652 169.202 29.6787C168.081 29.6787 167.093 29.6921 166.239 29.7188C165.225 29.7454 164.291 29.7721 163.437 29.7988C162.556 29.7988 161.581 29.8389 160.514 29.9189C159.579 29.9723 158.472 30.0524 157.19 30.1592C155.936 30.266 154.548 30.4128 153.026 30.5996C153.16 28.7845 153.253 27.0762 153.307 25.4746C153.387 23.8464 153.44 22.4183 153.467 21.1904C153.493 19.749 153.493 18.4144 153.467 17.1865C153.6 14.1169 153.547 11.6344 153.307 9.73926C153.066 7.84408 152.786 6.62956 152.466 6.0957C152.306 5.90885 152.079 5.68197 151.785 5.41504C151.545 5.2015 151.211 4.94792 150.784 4.6543C150.357 4.36068 149.823 4.02702 149.183 3.65332ZM173.887 1.77148C174.741 1.90495 175.515 2.02507 176.209 2.13184C176.903 2.21191 177.504 2.27865 178.011 2.33203C178.598 2.41211 179.118 2.47884 179.572 2.53223C180.133 2.6123 180.974 2.51888 182.095 2.25195C183.216 1.95833 184.444 1.69141 185.778 1.45117C187.14 1.18424 188.528 1.03743 189.942 1.01074C191.357 0.957357 192.652 1.21094 193.826 1.77148C195.001 2.33203 195.962 2.89258 196.709 3.45312C197.456 4.01367 198.044 4.61426 198.471 5.25488C198.924 5.86882 199.245 6.52279 199.432 7.2168C199.618 7.91081 199.725 8.67155 199.752 9.49902C199.725 10.7269 199.432 11.9147 198.871 13.0625C198.631 13.543 198.311 14.0501 197.91 14.584C197.536 15.0911 197.069 15.585 196.509 16.0654C195.948 16.5459 195.281 16.9997 194.507 17.4268C193.759 17.8538 192.879 18.2275 191.864 18.5479C192.852 18.8415 193.666 19.1885 194.307 19.5889C194.974 19.9893 195.508 20.363 195.908 20.71C196.389 21.137 196.749 21.5508 196.989 21.9512C197.283 22.5117 197.483 22.9922 197.59 23.3926C197.697 23.793 197.763 24.18 197.79 24.5537C197.843 24.9007 197.91 25.2611 197.99 25.6348C198.07 26.0085 198.244 26.4355 198.511 26.916C198.724 27.2897 198.978 27.6768 199.271 28.0771C199.538 28.4242 199.845 28.7979 200.192 29.1982C200.566 29.5986 201.02 29.9857 201.554 30.3594C200.806 30.3861 200.112 30.3994 199.472 30.3994C198.858 30.3994 198.324 30.3994 197.87 30.3994C197.336 30.3994 196.829 30.3861 196.349 30.3594C195.868 30.3327 195.268 30.3193 194.547 30.3193C193.933 30.3193 193.146 30.3193 192.185 30.3193C191.25 30.3193 190.116 30.3327 188.781 30.3594C189.368 29.9056 189.849 29.4518 190.223 28.998C190.596 28.5443 190.89 28.1305 191.104 27.7568C191.344 27.3298 191.517 26.916 191.624 26.5156C191.757 25.7949 191.771 25.0475 191.664 24.2734C191.584 23.6061 191.37 22.8721 191.023 22.0713C190.676 21.2438 190.116 20.4163 189.342 19.5889C188.568 19.7223 187.914 19.8291 187.38 19.9092C186.873 19.9626 186.432 20.016 186.059 20.0693C185.632 20.1227 185.285 20.1628 185.018 20.1895C184.777 20.2161 184.51 20.2428 184.217 20.2695C183.977 20.2962 183.71 20.3363 183.416 20.3896C183.149 20.4163 182.896 20.4564 182.655 20.5098C182.602 21.6576 182.602 22.6585 182.655 23.5127C182.709 24.3402 182.775 25.0342 182.855 25.5947C182.962 26.262 183.082 26.8359 183.216 27.3164C183.349 27.7969 183.536 28.264 183.776 28.7178C183.963 29.0915 184.203 29.4919 184.497 29.9189C184.791 30.3193 185.124 30.653 185.498 30.9199C184.804 30.9199 184.137 30.9199 183.496 30.9199C182.882 30.9199 182.322 30.9066 181.814 30.8799C181.227 30.8799 180.667 30.8665 180.133 30.8398C179.599 30.8132 178.998 30.7998 178.331 30.7998C177.771 30.7998 177.103 30.7998 176.329 30.7998C175.582 30.7998 174.768 30.8132 173.887 30.8398C174.581 30.1191 175.128 29.5052 175.528 28.998C175.929 28.4909 176.236 28.0638 176.449 27.7168C176.689 27.3431 176.836 27.0228 176.89 26.7559C176.943 26.3288 176.983 25.568 177.01 24.4736C177.063 23.3525 177.103 22.0713 177.13 20.6299C177.157 19.1885 177.17 17.6803 177.17 16.1055C177.17 14.5306 177.157 13.0625 177.13 11.7012C177.103 10.3132 177.076 9.12533 177.05 8.1377C177.023 7.15007 176.996 6.52279 176.97 6.25586C176.89 5.77539 176.716 5.29492 176.449 4.81445C176.236 4.38737 175.929 3.9069 175.528 3.37305C175.128 2.83919 174.581 2.30534 173.887 1.77148ZM189.021 15.8652C189.288 15.7051 189.515 15.5449 189.702 15.3848C189.889 15.2246 190.049 14.971 190.183 14.624C190.316 14.2503 190.423 13.7298 190.503 13.0625C190.61 12.3952 190.73 11.4876 190.863 10.3398C190.97 9.19206 190.89 8.24447 190.623 7.49707C190.383 6.74967 190.049 6.16243 189.622 5.73535C189.222 5.28158 188.768 4.97461 188.261 4.81445C187.78 4.6276 187.353 4.53418 186.979 4.53418C186.232 4.53418 185.498 4.76107 184.777 5.21484C184.057 5.66862 183.509 6.28255 183.136 7.05664C183.002 7.40365 182.882 7.97754 182.775 8.77832C182.695 9.47233 182.642 10.4333 182.615 11.6611C182.589 12.889 182.629 14.5039 182.735 16.5059C183.75 16.666 184.644 16.7327 185.418 16.7061C186.192 16.6527 186.846 16.5592 187.38 16.4258C188.021 16.2923 188.568 16.1055 189.021 15.8652ZM226.698 1.69141C226.325 2.54557 225.991 3.29297 225.697 3.93359C225.404 4.57422 225.15 5.12142 224.937 5.5752C224.696 6.08236 224.496 6.53613 224.336 6.93652C224.202 7.23014 224.029 7.63053 223.815 8.1377C223.602 8.59147 223.335 9.19206 223.015 9.93945C222.721 10.6602 222.334 11.5944 221.854 12.7422C221.613 11.7546 221.32 10.887 220.973 10.1396C220.626 9.39225 220.252 8.73828 219.852 8.17773C219.451 7.61719 219.024 7.16341 218.57 6.81641C218.143 6.44271 217.716 6.13574 217.289 5.89551C216.301 5.36165 215.26 5.06803 214.166 5.01465C212.725 5.09473 211.59 5.33496 210.763 5.73535C209.962 6.10905 209.375 6.54948 209.001 7.05664C208.627 7.53711 208.427 8.04427 208.4 8.57812C208.374 9.08529 208.44 9.51237 208.601 9.85938C208.734 10.1797 209.201 10.5534 210.002 10.9805C210.829 11.4076 211.817 11.9014 212.965 12.4619C214.139 12.9958 215.394 13.6097 216.729 14.3037C218.063 14.971 219.291 15.7184 220.412 16.5459C221.56 17.3467 222.521 18.2275 223.295 19.1885C224.096 20.1227 224.536 21.1237 224.616 22.1914C224.696 23.5527 224.683 24.7806 224.576 25.875C224.469 26.9694 224.096 27.9036 223.455 28.6777C222.814 29.4518 221.813 30.0658 220.452 30.5195C219.118 30.9733 217.262 31.2536 214.887 31.3604C212.431 31.4671 210.416 31.3337 208.841 30.96C207.266 30.5863 205.985 30.0791 204.997 29.4385C204.036 28.7979 203.315 28.0905 202.835 27.3164C202.381 26.5423 202.048 25.8083 201.834 25.1143C201.62 24.3936 201.474 23.7796 201.394 23.2725C201.313 22.7386 201.18 22.4183 200.993 22.3115C200.78 22.1781 200.566 22.0579 200.353 21.9512C200.166 21.8444 199.965 21.751 199.752 21.6709C199.538 21.5641 199.325 21.4707 199.111 21.3906L210.763 19.5088C210.095 20.0426 209.575 20.5365 209.201 20.9902C208.854 21.444 208.587 21.8444 208.4 22.1914C208.187 22.5918 208.04 22.9655 207.96 23.3125C207.907 23.6862 208.027 24.1533 208.32 24.7139C208.614 25.2744 209.014 25.8216 209.521 26.3555C210.055 26.8626 210.669 27.2897 211.363 27.6367C212.057 27.9837 212.778 28.1305 213.525 28.0771C214.46 27.9971 215.22 27.7702 215.808 27.3965C216.395 26.9961 216.835 26.5023 217.129 25.915C217.449 25.3278 217.636 24.6872 217.689 23.9932C217.743 23.2992 217.676 22.6185 217.489 21.9512C217.329 21.2572 217.062 20.6165 216.688 20.0293C216.315 19.4154 215.874 18.9082 215.367 18.5078C214.913 18.1875 214.206 17.8805 213.245 17.5869C212.311 17.2933 211.257 16.973 210.082 16.626C208.934 16.279 207.746 15.8786 206.519 15.4248C205.317 14.971 204.223 14.4105 203.235 13.7432C202.274 13.0758 201.5 12.2884 200.913 11.3809C200.353 10.4733 200.139 9.37891 200.272 8.09766C200.379 7.00326 200.726 6.0957 201.313 5.375C201.927 4.6276 202.688 4.04036 203.596 3.61328C204.53 3.15951 205.558 2.82585 206.679 2.6123C207.826 2.39876 208.988 2.27865 210.162 2.25195C211.363 2.19857 212.538 2.21191 213.686 2.29199C214.86 2.37207 215.914 2.46549 216.849 2.57227C217.783 2.67904 218.57 2.78581 219.211 2.89258C219.878 2.97266 220.292 3.02604 220.452 3.05273C221.146 3.10612 221.84 3.09277 222.534 3.0127C223.148 2.95931 223.815 2.83919 224.536 2.65234C225.284 2.4388 226.004 2.11849 226.698 1.69141ZM224.456 3.65332C226.325 3.70671 227.873 3.74674 229.101 3.77344C230.355 3.77344 231.369 3.77344 232.144 3.77344H234.266H246.197C246.251 4.30729 246.291 4.8278 246.317 5.33496C246.371 5.81543 246.397 6.24251 246.397 6.61621C246.397 7.06999 246.384 7.48372 246.357 7.85742C246.331 8.23112 246.291 8.63151 246.237 9.05859C246.184 9.43229 246.131 9.83268 246.077 10.2598C246.024 10.6868 245.93 11.1273 245.797 11.5811C245.423 10.1396 244.916 9.04525 244.275 8.29785C243.661 7.55046 243.034 7.00326 242.394 6.65625C241.646 6.25586 240.859 6.04232 240.031 6.01562C238.937 6.06901 238.083 6.16243 237.469 6.2959C236.855 6.42936 236.374 6.61621 236.027 6.85645C235.68 7.09668 235.413 7.37695 235.227 7.69727C235.066 7.99089 234.893 8.32454 234.706 8.69824C234.546 9.01855 234.399 9.51237 234.266 10.1797C234.132 10.7402 233.999 11.501 233.865 12.4619C233.758 13.4229 233.638 14.6641 233.505 16.1855C234.226 15.972 234.799 15.7718 235.227 15.585C235.68 15.3981 236.041 15.238 236.308 15.1045C236.601 14.9443 236.815 14.7975 236.948 14.6641C237.055 14.5039 237.215 14.2103 237.429 13.7832C237.589 13.4095 237.802 12.9023 238.069 12.2617C238.363 11.6211 238.71 10.7402 239.11 9.61914C239.164 10.847 239.19 11.8747 239.19 12.7021C239.19 13.5029 239.204 14.1569 239.23 14.6641C239.23 15.2513 239.244 15.7184 239.271 16.0654V17.5869C239.271 18.1475 239.271 18.9082 239.271 19.8691C239.297 20.8034 239.337 21.9912 239.391 23.4326C239.07 22.445 238.777 21.6709 238.51 21.1104C238.27 20.5231 238.056 20.0827 237.869 19.7891C237.656 19.4421 237.469 19.2018 237.309 19.0684C237.122 19.015 236.868 18.9616 236.548 18.9082C236.254 18.8815 235.881 18.8682 235.427 18.8682C235 18.8682 234.452 18.9349 233.785 19.0684C233.705 20.5365 233.692 21.7243 233.745 22.6318C233.825 23.5127 233.932 24.1934 234.065 24.6738C234.199 25.2344 234.359 25.6348 234.546 25.875C234.786 26.1152 235.267 26.3154 235.987 26.4756C236.708 26.609 237.522 26.6624 238.43 26.6357C239.364 26.5824 240.312 26.4222 241.272 26.1553C242.233 25.8883 243.088 25.4479 243.835 24.834C244.396 24.3268 244.996 23.6862 245.637 22.9121C246.171 22.2448 246.758 21.404 247.398 20.3896C248.066 19.3753 248.72 18.1475 249.36 16.7061C249.254 17.9072 249.174 18.9082 249.12 19.709C249.093 20.4831 249.053 21.1104 249 21.5908C248.947 22.1514 248.907 22.5785 248.88 22.8721C248.88 23.1924 248.84 23.6462 248.76 24.2334C248.706 24.7406 248.613 25.4346 248.479 26.3154C248.373 27.1696 248.226 28.264 248.039 29.5986C246.785 29.6253 245.597 29.652 244.476 29.6787C243.354 29.6787 242.367 29.6921 241.513 29.7188C240.498 29.7454 239.564 29.7721 238.71 29.7988C237.829 29.7988 236.855 29.8389 235.787 29.9189C234.853 29.9723 233.745 30.0524 232.464 30.1592C231.209 30.266 229.821 30.4128 228.3 30.5996C228.433 28.7845 228.527 27.0762 228.58 25.4746C228.66 23.8464 228.714 22.4183 228.74 21.1904C228.767 19.749 228.767 18.4144 228.74 17.1865C228.874 14.1169 228.82 11.6344 228.58 9.73926C228.34 7.84408 228.06 6.62956 227.739 6.0957C227.579 5.90885 227.352 5.68197 227.059 5.41504C226.818 5.2015 226.485 4.94792 226.058 4.6543C225.631 4.36068 225.097 4.02702 224.456 3.65332Z" fill="black"/>
</svg>
